<svg xmlns="http://www.w3.org/2000/svg" viewBox="0 0 800 600" width="800" height="600"><defs><linearGradient id="sky" x1="0" y1="0" x2="0" y2="1"><stop offset="0" stop-color="#9fd4ee"/><stop offset="1" stop-color="#d8f0c8"/></linearGradient></defs><rect width="800" height="600" fill="url(#sky)"/><line x1="212.0" y1="120.0" x2="230.0" y2="120.0" stroke="#f6c453" stroke-width="6" stroke-linecap="round"/><line x1="200.2" y1="156.4" x2="214.7" y2="167.0" stroke="#f6c453" stroke-width="6" stroke-linecap="round"/><line x1="169.2" y1="179.0" x2="174.7" y2="196.1" stroke="#f6c453" stroke-width="6" stroke-linecap="round"/><line x1="130.8" y1="179.0" x2="125.3" y2="196.1" stroke="#f6c453" stroke-width="6" stroke-linecap="round"/><line x1="99.8" y1="156.4" x2="85.3" y2="167.0" stroke="#f6c453" stroke-width="6" stroke-linecap="round"/><line x1="88.0" y1="120.0" x2="70.0" y2="120.0" stroke="#f6c453" stroke-width="6" stroke-linecap="round"/><line x1="99.8" y1="83.6" x2="85.3" y2="73.0" stroke="#f6c453" stroke-width="6" stroke-linecap="round"/><line x1="130.8" y1="61.0" x2="125.3" y2="43.9" stroke="#f6c453" stroke-width="6" stroke-linecap="round"/><line x1="169.2" y1="61.0" x2="174.7" y2="43.9" stroke="#f6c453" stroke-width="6" stroke-linecap="round"/><line x1="200.2" y1="83.6" x2="214.7" y2="73.0" stroke="#f6c453" stroke-width="6" stroke-linecap="round"/><circle cx="150" cy="120" r="54" fill="#ffd56a"/><rect x="0" y="390" width="800" height="210" fill="#2a7594"/><path d="M0 390 Q100 366 200 390 T400 390 T600 390 T800 390 V420 H0 Z" fill="#3e92b0"/><path d="M0 436 Q120 418 240 440 T480 436 T800 430" fill="none" stroke="#d7f3fb" stroke-width="5" opacity="0.7"/><g transform="translate(430 400) scale(1.35)">
      <path d="M-90 10 Q-70 58 0 62 Q70 58 90 10 Z" fill="#e15a3c"/>
      <path d="M-70 10 H70 L58 -8 H-58 Z" fill="#f4d7b0"/>
      <rect x="-6" y="-78" width="8" height="78" fill="#8a5a38"/>
      <path d="M2 -74 L62 -28 L2 -18 Z" fill="#f7f1e6"/>
      <circle cx="-28" cy="18" r="5" fill="#f2c14e"/>
    </g></svg>