<svg xmlns="http://www.w3.org/2000/svg" viewBox="0 0 800 600" width="800" height="600"><defs><linearGradient id="sky" x1="0" y1="0" x2="0" y2="1"><stop offset="0" stop-color="#1c2340"/><stop offset="1" stop-color="#3d3358"/></linearGradient></defs><rect width="800" height="600" fill="url(#sky)"/><path d="M180 250 H620 L580 470 H220 Z" fill="#f6e7c1"/><path d="M160 250 H640 L610 210 H190 Z" fill="#d3543c"/><ellipse cx="360" cy="360" rx="54" ry="28" fill="#c4552a"/><rect x="352" y="360" width="16" height="40" fill="#8a5a38"/><g transform="translate(560 280) scale(1)">
      <path d="M-30 10 h60 l12 64 h-84 z" fill="#6d4c93"/>
      <circle cx="0" cy="-16" r="26" fill="#f3c7a6"/>
      <circle cx="0" cy="-40" r="14" fill="#6b4a3a"/>
      <path d="M-22 -20 Q0 -6 22 -18" fill="none" stroke="#6b4a3a" stroke-width="8" stroke-linecap="round"/>
      <circle cx="-8" cy="-14" r="2.6" fill="#2b241c"/>
      <circle cx="8" cy="-14" r="2.6" fill="#2b241c"/>
      <path d="M-6 0 Q0 6 6 0" fill="none" stroke="#c46a5a" stroke-width="2.2" stroke-linecap="round"/>
    </g><g transform="translate(180 320) scale(0.9)">
      <path d="M-24 16 h48 l8 50 h-64 z" fill="#e7d7b8"/>
      <path d="M-16 20 Q0 8 18 22" fill="none" stroke="#d3543c" stroke-width="8" stroke-linecap="round"/>
      <circle cx="0" cy="-10" r="26" fill="#f3c7a6"/>
      <path d="M-24 -18 Q0 -42 24 -14 V0 Q0 -8 -24 -4 Z" fill="#2c241c"/>
      <circle cx="-8" cy="-8" r="3" fill="#2b241c"/>
      <circle cx="8" cy="-8" r="3" fill="#2b241c"/>
      <path d="M-7 6 Q0 12 7 6" fill="none" stroke="#c46a5a" stroke-width="2.4" stroke-linecap="round"/>
    </g></svg>