<svg xmlns="http://www.w3.org/2000/svg" viewBox="0 0 800 600" width="800" height="600"><defs><linearGradient id="sky" x1="0" y1="0" x2="0" y2="1"><stop offset="0" stop-color="#1b2440"/><stop offset="1" stop-color="#3a2a4a"/></linearGradient></defs><rect width="800" height="600" fill="url(#sky)"/><circle cx="90" cy="70" r="2" fill="#f7f1e6"/><circle cx="180" cy="110" r="1.6" fill="#f7f1e6"/><circle cx="700" cy="80" r="2" fill="#f7f1e6"/><circle cx="640" cy="90" r="46" fill="#f4e7c3"/><circle cx="658" cy="82" r="36" fill="#24324a"/><rect x="0" y="470" width="800" height="130" fill="#2a241c"/><g transform="translate(300 300) scale(1.1)">
      <path d="M-24 16 h48 l8 50 h-64 z" fill="#e7d7b8"/>
      <path d="M-16 20 Q0 8 18 22" fill="none" stroke="#d3543c" stroke-width="8" stroke-linecap="round"/>
      <circle cx="0" cy="-10" r="26" fill="#f3c7a6"/>
      <path d="M-24 -18 Q0 -42 24 -14 V0 Q0 -8 -24 -4 Z" fill="#2c241c"/>
      <circle cx="-8" cy="-8" r="3" fill="#2b241c"/>
      <circle cx="8" cy="-8" r="3" fill="#2b241c"/>
      <path d="M-7 6 Q0 12 7 6" fill="none" stroke="#c46a5a" stroke-width="2.4" stroke-linecap="round"/>
    </g><g transform="translate(460 280) scale(1.15)">
      <path d="M-30 10 h60 l12 64 h-84 z" fill="#6d4c93"/>
      <circle cx="0" cy="-16" r="26" fill="#f3c7a6"/>
      <circle cx="0" cy="-40" r="14" fill="#6b4a3a"/>
      <path d="M-22 -20 Q0 -6 22 -18" fill="none" stroke="#6b4a3a" stroke-width="8" stroke-linecap="round"/>
      <circle cx="-8" cy="-14" r="2.6" fill="#2b241c"/>
      <circle cx="8" cy="-14" r="2.6" fill="#2b241c"/>
      <path d="M-6 0 Q0 6 6 0" fill="none" stroke="#c46a5a" stroke-width="2.2" stroke-linecap="round"/>
    </g></svg>